<mxfile host="app.diagrams.net" modified="2023-10-11T10:39:59.963Z" agent="Mozilla/5.0 (Windows NT 10.0; Win64; x64) AppleWebKit/537.36 (KHTML, like Gecko) Chrome/117.0.0.0 Safari/537.36 Edg/117.0.2045.60" etag="_CkwiDq86xvXoIJHoEN8" version="22.0.4" type="device">
  <diagram id="QyiR3dw7XH7lVBfc2ZSO" name="Page-1">
    <mxGraphModel dx="1386" dy="831" grid="0" gridSize="10" guides="1" tooltips="1" connect="1" arrows="1" fold="1" page="1" pageScale="1" pageWidth="850" pageHeight="1100" math="0" shadow="0">
      <root>
        <mxCell id="0" />
        <mxCell id="1" parent="0" />
        <mxCell id="GHvzS7-rAwxbhNusEGIo-12" value="" style="shape=card;whiteSpace=wrap;html=1;" parent="1" vertex="1">
          <mxGeometry x="68" y="21" width="896" height="607" as="geometry" />
        </mxCell>
        <mxCell id="GHvzS7-rAwxbhNusEGIo-8" value="" style="shape=card;whiteSpace=wrap;html=1;" parent="1" vertex="1">
          <mxGeometry x="988" y="13" width="905" height="423" as="geometry" />
        </mxCell>
        <mxCell id="7FVc3WeMKuYTPJVrsuWi-1" value="User" style="swimlane;fontStyle=3;align=center;verticalAlign=top;childLayout=stackLayout;horizontal=1;startSize=26;horizontalStack=0;resizeParent=1;resizeParentMax=0;resizeLast=0;collapsible=1;marginBottom=0;movable=0;resizable=0;rotatable=0;deletable=0;editable=0;connectable=0;" parent="1" vertex="1">
          <mxGeometry x="190" y="90" width="160" height="178" as="geometry" />
        </mxCell>
        <mxCell id="7FVc3WeMKuYTPJVrsuWi-2" value="- id: Long&#xa;- email: String&#xa;- password: String&#xa;- fullName: String&#xa;- address: Address&#xa;- gender: Gender&#xa;- verified: boolean&#xa;- socialAccount: boolean&#xa;- role: Role" style="text;strokeColor=none;fillColor=none;align=left;verticalAlign=top;spacingLeft=4;spacingRight=4;overflow=hidden;rotatable=0;points=[[0,0.5],[1,0.5]];portConstraint=eastwest;" parent="7FVc3WeMKuYTPJVrsuWi-1" vertex="1">
          <mxGeometry y="26" width="160" height="144" as="geometry" />
        </mxCell>
        <mxCell id="7FVc3WeMKuYTPJVrsuWi-3" value="" style="line;strokeWidth=1;fillColor=none;align=left;verticalAlign=middle;spacingTop=-1;spacingLeft=3;spacingRight=3;rotatable=0;labelPosition=right;points=[];portConstraint=eastwest;strokeColor=inherit;" parent="7FVc3WeMKuYTPJVrsuWi-1" vertex="1">
          <mxGeometry y="170" width="160" height="8" as="geometry" />
        </mxCell>
        <mxCell id="7FVc3WeMKuYTPJVrsuWi-6" value="Address" style="swimlane;fontStyle=1;align=center;verticalAlign=top;childLayout=stackLayout;horizontal=1;startSize=26;horizontalStack=0;resizeParent=1;resizeParentMax=0;resizeLast=0;collapsible=1;marginBottom=0;movable=0;resizable=0;rotatable=0;deletable=0;editable=0;connectable=0;" parent="1" vertex="1">
          <mxGeometry x="390" y="90" width="160" height="118" as="geometry" />
        </mxCell>
        <mxCell id="7FVc3WeMKuYTPJVrsuWi-7" value="- id: Long&#xa;- city: String&#xa;- street: String&#xa;- number: String&#xa;- zipCode: String" style="text;strokeColor=none;fillColor=none;align=left;verticalAlign=top;spacingLeft=4;spacingRight=4;overflow=hidden;rotatable=0;points=[[0,0.5],[1,0.5]];portConstraint=eastwest;" parent="7FVc3WeMKuYTPJVrsuWi-6" vertex="1">
          <mxGeometry y="26" width="160" height="84" as="geometry" />
        </mxCell>
        <mxCell id="7FVc3WeMKuYTPJVrsuWi-8" value="" style="line;strokeWidth=1;fillColor=none;align=left;verticalAlign=middle;spacingTop=-1;spacingLeft=3;spacingRight=3;rotatable=0;labelPosition=right;points=[];portConstraint=eastwest;strokeColor=inherit;" parent="7FVc3WeMKuYTPJVrsuWi-6" vertex="1">
          <mxGeometry y="110" width="160" height="8" as="geometry" />
        </mxCell>
        <mxCell id="7FVc3WeMKuYTPJVrsuWi-19" style="edgeStyle=orthogonalEdgeStyle;shape=flexArrow;rounded=0;orthogonalLoop=1;jettySize=auto;html=1;exitX=0.5;exitY=0;exitDx=0;exitDy=0;entryX=1.004;entryY=1.044;entryDx=0;entryDy=0;entryPerimeter=0;" parent="1" source="7FVc3WeMKuYTPJVrsuWi-12" target="7FVc3WeMKuYTPJVrsuWi-2" edge="1">
          <mxGeometry relative="1" as="geometry" />
        </mxCell>
        <mxCell id="7FVc3WeMKuYTPJVrsuWi-12" value="RegularUser" style="swimlane;fontStyle=1;align=center;verticalAlign=top;childLayout=stackLayout;horizontal=1;startSize=26;horizontalStack=0;resizeParent=1;resizeParentMax=0;resizeLast=0;collapsible=1;marginBottom=0;movable=1;resizable=1;rotatable=1;deletable=1;editable=1;connectable=1;" parent="1" vertex="1">
          <mxGeometry x="425" y="318.5" width="190" height="68" as="geometry" />
        </mxCell>
        <mxCell id="7FVc3WeMKuYTPJVrsuWi-13" value="- account: Account&#xa;" style="text;strokeColor=none;fillColor=none;align=left;verticalAlign=top;spacingLeft=4;spacingRight=4;overflow=hidden;rotatable=0;points=[[0,0.5],[1,0.5]];portConstraint=eastwest;" parent="7FVc3WeMKuYTPJVrsuWi-12" vertex="1">
          <mxGeometry y="26" width="190" height="34" as="geometry" />
        </mxCell>
        <mxCell id="7FVc3WeMKuYTPJVrsuWi-14" value="" style="line;strokeWidth=1;fillColor=none;align=left;verticalAlign=middle;spacingTop=-1;spacingLeft=3;spacingRight=3;rotatable=0;labelPosition=right;points=[];portConstraint=eastwest;strokeColor=inherit;" parent="7FVc3WeMKuYTPJVrsuWi-12" vertex="1">
          <mxGeometry y="60" width="190" height="8" as="geometry" />
        </mxCell>
        <mxCell id="7FVc3WeMKuYTPJVrsuWi-18" style="edgeStyle=orthogonalEdgeStyle;rounded=0;orthogonalLoop=1;jettySize=auto;html=1;shape=flexArrow;width=11.764705882352942;endSize=6.4;" parent="1" source="7FVc3WeMKuYTPJVrsuWi-15" edge="1">
          <mxGeometry relative="1" as="geometry">
            <mxPoint x="260" y="270" as="targetPoint" />
          </mxGeometry>
        </mxCell>
        <mxCell id="7FVc3WeMKuYTPJVrsuWi-15" value="Admin" style="swimlane;fontStyle=1;align=center;verticalAlign=top;childLayout=stackLayout;horizontal=1;startSize=26;horizontalStack=0;resizeParent=1;resizeParentMax=0;resizeLast=0;collapsible=1;marginBottom=0;movable=1;resizable=1;rotatable=1;deletable=1;editable=1;connectable=1;" parent="1" vertex="1">
          <mxGeometry x="180" y="318.5" width="160" height="34" as="geometry" />
        </mxCell>
        <mxCell id="7FVc3WeMKuYTPJVrsuWi-17" value="" style="line;strokeWidth=1;fillColor=none;align=left;verticalAlign=middle;spacingTop=-1;spacingLeft=3;spacingRight=3;rotatable=0;labelPosition=right;points=[];portConstraint=eastwest;strokeColor=inherit;" parent="7FVc3WeMKuYTPJVrsuWi-15" vertex="1">
          <mxGeometry y="26" width="160" height="8" as="geometry" />
        </mxCell>
        <mxCell id="7FVc3WeMKuYTPJVrsuWi-29" value="Account" style="swimlane;fontStyle=1;align=center;verticalAlign=top;childLayout=stackLayout;horizontal=1;startSize=26;horizontalStack=0;resizeParent=1;resizeParentMax=0;resizeLast=0;collapsible=1;marginBottom=0;movable=1;resizable=1;rotatable=1;deletable=1;editable=1;connectable=1;" parent="1" vertex="1">
          <mxGeometry x="110" y="466" width="230" height="108" as="geometry" />
        </mxCell>
        <mxCell id="7FVc3WeMKuYTPJVrsuWi-30" value="- id: Long&#xa;- accountNum: String&#xa;- tokensNum: int&#xa;- totalTokenSpending: int" style="text;strokeColor=none;fillColor=none;align=left;verticalAlign=top;spacingLeft=4;spacingRight=4;overflow=hidden;rotatable=0;points=[[0,0.5],[1,0.5]];portConstraint=eastwest;" parent="7FVc3WeMKuYTPJVrsuWi-29" vertex="1">
          <mxGeometry y="26" width="230" height="74" as="geometry" />
        </mxCell>
        <mxCell id="7FVc3WeMKuYTPJVrsuWi-31" value="" style="line;strokeWidth=1;fillColor=none;align=left;verticalAlign=middle;spacingTop=-1;spacingLeft=3;spacingRight=3;rotatable=0;labelPosition=right;points=[];portConstraint=eastwest;strokeColor=inherit;" parent="7FVc3WeMKuYTPJVrsuWi-29" vertex="1">
          <mxGeometry y="100" width="230" height="8" as="geometry" />
        </mxCell>
        <mxCell id="7FVc3WeMKuYTPJVrsuWi-35" value="Transaction" style="swimlane;fontStyle=1;align=center;verticalAlign=top;childLayout=stackLayout;horizontal=1;startSize=26;horizontalStack=0;resizeParent=1;resizeParentMax=0;resizeLast=0;collapsible=1;marginBottom=0;movable=1;resizable=1;rotatable=1;deletable=1;editable=1;connectable=1;" parent="1" vertex="1">
          <mxGeometry x="440" y="465" width="230" height="128" as="geometry" />
        </mxCell>
        <mxCell id="7FVc3WeMKuYTPJVrsuWi-36" value="- id: Long&#xa;- timeStamp: LocalDateTime&#xa;- tokensNum: int&#xa;- moneySpent: int&#xa;- currency: String&#xa;- bought: boolean" style="text;strokeColor=none;fillColor=none;align=left;verticalAlign=top;spacingLeft=4;spacingRight=4;overflow=hidden;rotatable=0;points=[[0,0.5],[1,0.5]];portConstraint=eastwest;" parent="7FVc3WeMKuYTPJVrsuWi-35" vertex="1">
          <mxGeometry y="26" width="230" height="94" as="geometry" />
        </mxCell>
        <mxCell id="7FVc3WeMKuYTPJVrsuWi-37" value="" style="line;strokeWidth=1;fillColor=none;align=left;verticalAlign=middle;spacingTop=-1;spacingLeft=3;spacingRight=3;rotatable=0;labelPosition=right;points=[];portConstraint=eastwest;strokeColor=inherit;" parent="7FVc3WeMKuYTPJVrsuWi-35" vertex="1">
          <mxGeometry y="120" width="230" height="8" as="geometry" />
        </mxCell>
        <mxCell id="7FVc3WeMKuYTPJVrsuWi-39" value="Transactions&lt;br&gt;0..*" style="text;html=1;strokeColor=none;fillColor=none;align=center;verticalAlign=middle;whiteSpace=wrap;rounded=0;" parent="1" vertex="1">
          <mxGeometry x="360" y="541" width="60" height="30" as="geometry" />
        </mxCell>
        <mxCell id="7FVc3WeMKuYTPJVrsuWi-52" style="edgeStyle=orthogonalEdgeStyle;rounded=0;orthogonalLoop=1;jettySize=auto;html=1;" parent="1" source="7FVc3WeMKuYTPJVrsuWi-43" target="7FVc3WeMKuYTPJVrsuWi-46" edge="1">
          <mxGeometry relative="1" as="geometry" />
        </mxCell>
        <mxCell id="7FVc3WeMKuYTPJVrsuWi-43" value="Train" style="swimlane;fontStyle=1;align=center;verticalAlign=top;childLayout=stackLayout;horizontal=1;startSize=26;horizontalStack=0;resizeParent=1;resizeParentMax=0;resizeLast=0;collapsible=1;marginBottom=0;movable=1;resizable=1;rotatable=1;deletable=1;editable=1;connectable=1;" parent="1" vertex="1">
          <mxGeometry x="1117" y="80" width="230" height="98" as="geometry" />
        </mxCell>
        <mxCell id="7FVc3WeMKuYTPJVrsuWi-44" value="- id: String&#xa;- name: String&#xa;- type: TrainType&#xa;- trainBenefits: List&lt;TrainBenefits&gt;" style="text;strokeColor=none;fillColor=none;align=left;verticalAlign=top;spacingLeft=4;spacingRight=4;overflow=hidden;rotatable=0;points=[[0,0.5],[1,0.5]];portConstraint=eastwest;" parent="7FVc3WeMKuYTPJVrsuWi-43" vertex="1">
          <mxGeometry y="26" width="230" height="64" as="geometry" />
        </mxCell>
        <mxCell id="7FVc3WeMKuYTPJVrsuWi-45" value="" style="line;strokeWidth=1;fillColor=none;align=left;verticalAlign=middle;spacingTop=-1;spacingLeft=3;spacingRight=3;rotatable=0;labelPosition=right;points=[];portConstraint=eastwest;strokeColor=inherit;" parent="7FVc3WeMKuYTPJVrsuWi-43" vertex="1">
          <mxGeometry y="90" width="230" height="8" as="geometry" />
        </mxCell>
        <mxCell id="7FVc3WeMKuYTPJVrsuWi-46" value="Wagon" style="swimlane;fontStyle=1;align=center;verticalAlign=top;childLayout=stackLayout;horizontal=1;startSize=26;horizontalStack=0;resizeParent=1;resizeParentMax=0;resizeLast=0;collapsible=1;marginBottom=0;movable=1;resizable=1;rotatable=1;deletable=1;editable=1;connectable=1;" parent="1" vertex="1">
          <mxGeometry x="1117" y="258" width="230" height="138" as="geometry" />
        </mxCell>
        <mxCell id="7FVc3WeMKuYTPJVrsuWi-47" value="- id: String&#xa;- wagonNum: int&#xa;- numOfRows: int&#xa;- seatsPerRow: int&#xa;- totalNumOfSeats: int&#xa;- seatsWithTables: Boolean" style="text;strokeColor=none;fillColor=none;align=left;verticalAlign=top;spacingLeft=4;spacingRight=4;overflow=hidden;rotatable=0;points=[[0,0.5],[1,0.5]];portConstraint=eastwest;" parent="7FVc3WeMKuYTPJVrsuWi-46" vertex="1">
          <mxGeometry y="26" width="230" height="104" as="geometry" />
        </mxCell>
        <mxCell id="7FVc3WeMKuYTPJVrsuWi-48" value="" style="line;strokeWidth=1;fillColor=none;align=left;verticalAlign=middle;spacingTop=-1;spacingLeft=3;spacingRight=3;rotatable=0;labelPosition=right;points=[];portConstraint=eastwest;strokeColor=inherit;" parent="7FVc3WeMKuYTPJVrsuWi-46" vertex="1">
          <mxGeometry y="130" width="230" height="8" as="geometry" />
        </mxCell>
        <mxCell id="7FVc3WeMKuYTPJVrsuWi-51" value="«enum»&lt;br&gt;&lt;b&gt;TrainType&lt;br&gt;&lt;/b&gt;SOKO&lt;br&gt;REGIO" style="html=1;" parent="1" vertex="1">
          <mxGeometry x="1203" y="562" width="110" height="64" as="geometry" />
        </mxCell>
        <mxCell id="7FVc3WeMKuYTPJVrsuWi-54" value="- wagons&lt;br&gt;0..*" style="text;html=1;strokeColor=none;fillColor=none;align=center;verticalAlign=middle;whiteSpace=wrap;rounded=0;" parent="1" vertex="1">
          <mxGeometry x="1237" y="208" width="60" height="30" as="geometry" />
        </mxCell>
        <mxCell id="7FVc3WeMKuYTPJVrsuWi-55" value="Station" style="swimlane;fontStyle=1;align=center;verticalAlign=top;childLayout=stackLayout;horizontal=1;startSize=26;horizontalStack=0;resizeParent=1;resizeParentMax=0;resizeLast=0;collapsible=1;marginBottom=0;movable=1;resizable=1;rotatable=1;deletable=1;editable=1;connectable=1;" parent="1" vertex="1">
          <mxGeometry x="1657" y="288" width="210" height="118" as="geometry" />
        </mxCell>
        <mxCell id="7FVc3WeMKuYTPJVrsuWi-56" value="- id: String&#xa;- name: String&#xa;- coordinateX: double&#xa;- coordinateY: double" style="text;strokeColor=none;fillColor=none;align=left;verticalAlign=top;spacingLeft=4;spacingRight=4;overflow=hidden;rotatable=0;points=[[0,0.5],[1,0.5]];portConstraint=eastwest;" parent="7FVc3WeMKuYTPJVrsuWi-55" vertex="1">
          <mxGeometry y="26" width="210" height="84" as="geometry" />
        </mxCell>
        <mxCell id="7FVc3WeMKuYTPJVrsuWi-57" value="" style="line;strokeWidth=1;fillColor=none;align=left;verticalAlign=middle;spacingTop=-1;spacingLeft=3;spacingRight=3;rotatable=0;labelPosition=right;points=[];portConstraint=eastwest;strokeColor=inherit;" parent="7FVc3WeMKuYTPJVrsuWi-55" vertex="1">
          <mxGeometry y="110" width="210" height="8" as="geometry" />
        </mxCell>
        <mxCell id="7FVc3WeMKuYTPJVrsuWi-58" value="Departure" style="swimlane;fontStyle=1;align=center;verticalAlign=top;childLayout=stackLayout;horizontal=1;startSize=26;horizontalStack=0;resizeParent=1;resizeParentMax=0;resizeLast=0;collapsible=1;marginBottom=0;movable=1;resizable=1;rotatable=1;deletable=1;editable=1;connectable=1;" parent="1" vertex="1">
          <mxGeometry x="1407" y="80" width="210" height="138" as="geometry" />
        </mxCell>
        <mxCell id="7FVc3WeMKuYTPJVrsuWi-59" value="- id: String&#xa;- startTime: LocalDateTime&#xa;- durationInMinutes: int&#xa;- train: Train&#xa;- delayedMinutes: int&#xa;- cancelled: Boolean" style="text;strokeColor=none;fillColor=none;align=left;verticalAlign=top;spacingLeft=4;spacingRight=4;overflow=hidden;rotatable=0;points=[[0,0.5],[1,0.5]];portConstraint=eastwest;" parent="7FVc3WeMKuYTPJVrsuWi-58" vertex="1">
          <mxGeometry y="26" width="210" height="104" as="geometry" />
        </mxCell>
        <mxCell id="7FVc3WeMKuYTPJVrsuWi-60" value="" style="line;strokeWidth=1;fillColor=none;align=left;verticalAlign=middle;spacingTop=-1;spacingLeft=3;spacingRight=3;rotatable=0;labelPosition=right;points=[];portConstraint=eastwest;strokeColor=inherit;" parent="7FVc3WeMKuYTPJVrsuWi-58" vertex="1">
          <mxGeometry y="130" width="210" height="8" as="geometry" />
        </mxCell>
        <mxCell id="7FVc3WeMKuYTPJVrsuWi-99" value="Ticket" style="swimlane;fontStyle=1;align=center;verticalAlign=top;childLayout=stackLayout;horizontal=1;startSize=26;horizontalStack=0;resizeParent=1;resizeParentMax=0;resizeLast=0;collapsible=1;marginBottom=0;movable=1;resizable=1;rotatable=1;deletable=1;editable=1;connectable=1;" parent="1" vertex="1">
          <mxGeometry x="712" y="311" width="190" height="188" as="geometry" />
        </mxCell>
        <mxCell id="7FVc3WeMKuYTPJVrsuWi-100" value="- id: Long&#xa;- user: RegularUser&#xa;- departureId: String&#xa;- startStationId: String&#xa;- destinationStationId: String&#xa;- used: boolean&#xa;- numOfSeatsTaken: int&#xa;- additionalUsers: String&#xa;- totalPrice: double&#xa;- qrCode: String" style="text;strokeColor=none;fillColor=none;align=left;verticalAlign=top;spacingLeft=4;spacingRight=4;overflow=hidden;rotatable=0;points=[[0,0.5],[1,0.5]];portConstraint=eastwest;" parent="7FVc3WeMKuYTPJVrsuWi-99" vertex="1">
          <mxGeometry y="26" width="190" height="154" as="geometry" />
        </mxCell>
        <mxCell id="7FVc3WeMKuYTPJVrsuWi-101" value="" style="line;strokeWidth=1;fillColor=none;align=left;verticalAlign=middle;spacingTop=-1;spacingLeft=3;spacingRight=3;rotatable=0;labelPosition=right;points=[];portConstraint=eastwest;strokeColor=inherit;" parent="7FVc3WeMKuYTPJVrsuWi-99" vertex="1">
          <mxGeometry y="180" width="190" height="8" as="geometry" />
        </mxCell>
        <mxCell id="7FVc3WeMKuYTPJVrsuWi-114" value="StationDepartures" style="swimlane;fontStyle=1;align=center;verticalAlign=top;childLayout=stackLayout;horizontal=1;startSize=26;horizontalStack=0;resizeParent=1;resizeParentMax=0;resizeLast=0;collapsible=1;marginBottom=0;movable=1;resizable=1;rotatable=1;deletable=1;editable=1;connectable=1;" parent="1" vertex="1">
          <mxGeometry x="1407" y="288" width="210" height="138" as="geometry" />
        </mxCell>
        <mxCell id="7FVc3WeMKuYTPJVrsuWi-115" value="- station: Station&#xa;- startingStation: boolean&#xa;- price: int&#xa;- discountIfNotStarting: int&#xa;- stationOrder: int&#xa;- leavingTime String" style="text;strokeColor=none;fillColor=none;align=left;verticalAlign=top;spacingLeft=4;spacingRight=4;overflow=hidden;rotatable=0;points=[[0,0.5],[1,0.5]];portConstraint=eastwest;" parent="7FVc3WeMKuYTPJVrsuWi-114" vertex="1">
          <mxGeometry y="26" width="210" height="104" as="geometry" />
        </mxCell>
        <mxCell id="7FVc3WeMKuYTPJVrsuWi-116" value="" style="line;strokeWidth=1;fillColor=none;align=left;verticalAlign=middle;spacingTop=-1;spacingLeft=3;spacingRight=3;rotatable=0;labelPosition=right;points=[];portConstraint=eastwest;strokeColor=inherit;" parent="7FVc3WeMKuYTPJVrsuWi-114" vertex="1">
          <mxGeometry y="130" width="210" height="8" as="geometry" />
        </mxCell>
        <mxCell id="7FVc3WeMKuYTPJVrsuWi-118" value="- stationDepartures" style="text;html=1;strokeColor=none;fillColor=none;align=center;verticalAlign=middle;whiteSpace=wrap;rounded=0;" parent="1" vertex="1">
          <mxGeometry x="1522" y="250" width="115" height="30" as="geometry" />
        </mxCell>
        <mxCell id="7FVc3WeMKuYTPJVrsuWi-119" value="0..*" style="text;html=1;strokeColor=none;fillColor=none;align=center;verticalAlign=middle;whiteSpace=wrap;rounded=0;" parent="1" vertex="1">
          <mxGeometry x="1447" y="250" width="60" height="30" as="geometry" />
        </mxCell>
        <mxCell id="zYRJWL4uUYDDXgaBuuwR-2" value="«enum»&lt;br&gt;&lt;b&gt;Gender&lt;br&gt;&lt;/b&gt;MALE&lt;br&gt;FEMALE,&lt;br&gt;NOT_PROVIDED" style="html=1;" parent="1" vertex="1">
          <mxGeometry x="1203" y="653" width="110" height="74" as="geometry" />
        </mxCell>
        <mxCell id="GHvzS7-rAwxbhNusEGIo-1" value="«enum»&lt;br&gt;&lt;b&gt;TrainBenefits&lt;br&gt;&lt;/b&gt;BICYCLE_STORAGE,&lt;br&gt;INVALIDITY_AVAILABLE,&lt;br&gt;BABY_SEAT,&lt;br&gt;WI_FI,&lt;br&gt;TOILET,&lt;br&gt;CHARGERS" style="html=1;" parent="1" vertex="1">
          <mxGeometry x="1019" y="562" width="160" height="129" as="geometry" />
        </mxCell>
        <mxCell id="GHvzS7-rAwxbhNusEGIo-2" value="Role" style="swimlane;fontStyle=1;align=center;verticalAlign=top;childLayout=stackLayout;horizontal=1;startSize=26;horizontalStack=0;resizeParent=1;resizeParentMax=0;resizeLast=0;collapsible=1;marginBottom=0;movable=1;resizable=1;rotatable=1;deletable=1;editable=1;connectable=1;locked=0;" parent="1" vertex="1">
          <mxGeometry x="575" y="91" width="160" height="88" as="geometry" />
        </mxCell>
        <mxCell id="GHvzS7-rAwxbhNusEGIo-3" value="- id: Long&#xa;- roleName: String" style="text;strokeColor=none;fillColor=none;align=left;verticalAlign=top;spacingLeft=4;spacingRight=4;overflow=hidden;rotatable=0;points=[[0,0.5],[1,0.5]];portConstraint=eastwest;" parent="GHvzS7-rAwxbhNusEGIo-2" vertex="1">
          <mxGeometry y="26" width="160" height="54" as="geometry" />
        </mxCell>
        <mxCell id="GHvzS7-rAwxbhNusEGIo-4" value="" style="line;strokeWidth=1;fillColor=none;align=left;verticalAlign=middle;spacingTop=-1;spacingLeft=3;spacingRight=3;rotatable=0;labelPosition=right;points=[];portConstraint=eastwest;strokeColor=inherit;" parent="GHvzS7-rAwxbhNusEGIo-2" vertex="1">
          <mxGeometry y="80" width="160" height="8" as="geometry" />
        </mxCell>
        <mxCell id="GHvzS7-rAwxbhNusEGIo-5" value="Verification" style="swimlane;fontStyle=1;align=center;verticalAlign=top;childLayout=stackLayout;horizontal=1;startSize=26;horizontalStack=0;resizeParent=1;resizeParentMax=0;resizeLast=0;collapsible=1;marginBottom=0;movable=1;resizable=1;rotatable=1;deletable=1;editable=1;connectable=1;locked=0;" parent="1" vertex="1">
          <mxGeometry x="780" y="91" width="160" height="158" as="geometry" />
        </mxCell>
        <mxCell id="GHvzS7-rAwxbhNusEGIo-6" value="- id: Long&#xa;- securityCode: String&#xa;- failedAttempts: Integer&#xa;- userEmail: String&#xa;- expired: LocalDateTime&#xa;- used: boolean&#xa;- salt: String&#xa;- hashedId: String" style="text;strokeColor=none;fillColor=none;align=left;verticalAlign=top;spacingLeft=4;spacingRight=4;overflow=hidden;rotatable=0;points=[[0,0.5],[1,0.5]];portConstraint=eastwest;" parent="GHvzS7-rAwxbhNusEGIo-5" vertex="1">
          <mxGeometry y="26" width="160" height="124" as="geometry" />
        </mxCell>
        <mxCell id="GHvzS7-rAwxbhNusEGIo-7" value="" style="line;strokeWidth=1;fillColor=none;align=left;verticalAlign=middle;spacingTop=-1;spacingLeft=3;spacingRight=3;rotatable=0;labelPosition=right;points=[];portConstraint=eastwest;strokeColor=inherit;" parent="GHvzS7-rAwxbhNusEGIo-5" vertex="1">
          <mxGeometry y="150" width="160" height="8" as="geometry" />
        </mxCell>
        <mxCell id="GHvzS7-rAwxbhNusEGIo-9" value="" style="edgeStyle=orthogonalEdgeStyle;rounded=0;orthogonalLoop=1;jettySize=auto;html=1;endArrow=classic;endFill=1;" parent="1" source="7FVc3WeMKuYTPJVrsuWi-58" target="7FVc3WeMKuYTPJVrsuWi-114" edge="1">
          <mxGeometry relative="1" as="geometry">
            <mxPoint x="1512" y="218" as="sourcePoint" />
            <mxPoint x="1512" y="288" as="targetPoint" />
          </mxGeometry>
        </mxCell>
        <mxCell id="GHvzS7-rAwxbhNusEGIo-10" value="&lt;font size=&quot;1&quot; style=&quot;&quot;&gt;&lt;b style=&quot;font-size: 23px;&quot;&gt;MongoDB&lt;/b&gt;&lt;/font&gt;" style="text;html=1;strokeColor=none;fillColor=none;align=center;verticalAlign=middle;whiteSpace=wrap;rounded=0;" parent="1" vertex="1">
          <mxGeometry x="1039" y="36" width="60" height="30" as="geometry" />
        </mxCell>
        <mxCell id="GHvzS7-rAwxbhNusEGIo-11" value="" style="dashed=0;outlineConnect=0;html=1;align=center;labelPosition=center;verticalLabelPosition=bottom;verticalAlign=top;shape=mxgraph.weblogos.mongodb" parent="1" vertex="1">
          <mxGeometry x="1136" y="16" width="37.2" height="58.2" as="geometry" />
        </mxCell>
        <mxCell id="GHvzS7-rAwxbhNusEGIo-13" value="&lt;font size=&quot;1&quot; style=&quot;&quot;&gt;&lt;b style=&quot;font-size: 23px;&quot;&gt;PostgreSQL&lt;/b&gt;&lt;/font&gt;" style="text;html=1;strokeColor=none;fillColor=none;align=center;verticalAlign=middle;whiteSpace=wrap;rounded=0;" parent="1" vertex="1">
          <mxGeometry x="130" y="41" width="60" height="30" as="geometry" />
        </mxCell>
        <mxCell id="GHvzS7-rAwxbhNusEGIo-14" value="" style="image;aspect=fixed;html=1;points=[];align=center;fontSize=12;image=img/lib/azure2/databases/Azure_Database_PostgreSQL_Server.svg;" parent="1" vertex="1">
          <mxGeometry x="237" y="29.33" width="38" height="50.67" as="geometry" />
        </mxCell>
        <mxCell id="eCpnfAnm63V2MOhAZuxF-1" style="edgeStyle=orthogonalEdgeStyle;rounded=0;orthogonalLoop=1;jettySize=auto;html=1;exitX=1;exitY=0.5;exitDx=0;exitDy=0;entryX=-0.009;entryY=0.411;entryDx=0;entryDy=0;entryPerimeter=0;" parent="1" source="7FVc3WeMKuYTPJVrsuWi-30" target="7FVc3WeMKuYTPJVrsuWi-36" edge="1">
          <mxGeometry relative="1" as="geometry" />
        </mxCell>
      </root>
    </mxGraphModel>
  </diagram>
</mxfile>
